<svg xmlns="http://www.w3.org/2000/svg">
    <symbol id="logo" viewBox="0 0 37 50" fill="none">
        <path d="M18.1894 0.483476C19.3884 0.21273 21.2703 0.0618287 22.2534 0.0134811V5.28125C21.7699 5.26513 20.9356 5.31823 19.9299 5.51162C17.8993 5.89841 16.2072 6.52692 14.6601 7.30048C13.1129 8.07405 11.7108 9.28274 10.5989 10.2497C9.70926 11.0232 8.88678 12.1232 8.54834 12.6389L8.5 5C8.56446 4.93554 8.84867 4.77674 9.77695 4.15789C10.9373 3.38433 11.6142 2.99755 12.9679 2.27234C14.3216 1.54712 16.6907 0.821909 18.1894 0.483476Z"
              fill="#FE5823"/>
        <path d="M26.3997 0.483475C25.2007 0.212728 23.2364 0.0618287 22.2534 0.0134811V5.28125C22.7368 5.26513 23.6535 5.31823 24.6592 5.51162C26.6898 5.8984 28.3819 6.52692 29.929 7.30048C31.4762 8.07404 32.8782 9.28273 33.9902 10.2497C34.8798 11.0232 35.7023 12.1232 36.0408 12.6389L36.0891 5C36.0246 4.93554 35.7404 4.77674 34.8122 4.15789C33.6518 3.38433 32.9749 2.99755 31.6212 2.27234C30.2675 1.54712 27.8984 0.821908 26.3997 0.483475Z"
              fill="#FE5823"/>
        <path fill-rule="evenodd" clip-rule="evenodd"
              d="M24.9309 38.3686C29.3779 33.5337 35 27.4199 35 21.9215C35 15.3551 29.4112 10.0304 22.5176 10.0304C15.624 10.0304 10.0352 15.3551 10.0352 21.9215C10.0352 27.4199 15.6573 33.5337 20.1043 38.3686C20.9698 39.3111 21.7919 40.2024 22.5176 41.0333C23.2432 40.2024 24.0654 39.3111 24.9309 38.3686ZM22.5176 25.5318C23.1186 25.5318 23.7138 25.4216 24.2691 25.2073C24.8244 24.9931 25.3289 24.6791 25.7539 24.2833C26.1789 23.8874 26.5161 23.4175 26.7461 22.9003C26.9761 22.3831 27.0945 21.8287 27.0945 21.2689C27.0945 20.7091 26.9761 20.1548 26.7461 19.6376C26.5161 19.1204 26.1789 18.6504 25.7539 18.2546C25.3289 17.8588 24.8244 17.5448 24.2691 17.3305C23.7138 17.1163 23.1186 17.006 22.5176 17.006C21.3037 17.006 20.1396 17.4552 19.2812 18.2546C18.4229 19.0541 17.9407 20.1383 17.9407 21.2689C17.9407 22.3995 18.4229 23.4838 19.2812 24.2833C20.1396 25.0827 21.3037 25.5318 22.5176 25.5318Z"
              fill="#0071FE"/>
        <path d="M2.76656 11.7485C3.73351 9.93059 5.61363 7.9186 6.5 7L6.5 16.2827C6.26793 16.7082 6.02196 17.5663 5.8608 18.082C4.8455 21.7564 5.37732 24.9474 6.63436 28.2833C7.8914 31.6193 11.8076 36.164 13.9348 38.6781C15.6367 40.6893 18.6084 43.8674 19.8816 45.205L16.6907 49.3629C15.3853 48.0091 12.3684 44.8472 10.7439 43.0293C8.71331 40.757 6.48932 37.9529 5.18393 36.164C3.87855 34.3751 2.13803 31.5226 1.55786 29.8788C0.977693 28.235 0.155787 26.156 0.0590915 23.8837C-0.0376037 21.6114 -0.0859513 20.1609 0.49422 17.6469C1.07439 15.1328 1.55787 14.0208 2.76656 11.7485Z"
              fill="#0071FE"/>
    </symbol>
    <symbol id="person" viewBox="0 0 42 42" fill="none">
        <rect width="42" height="42" rx="21" fill="white"/>
        <path d="M21.4999 21.1549C16.5201 21.1549 12.3273 24.5386 11.0779 29.1411C10.6596 30.6821 11.9882 32 13.579 32H29.4209C31.0118 32 32.3405 30.6821 31.9221 29.1411C30.6727 24.5386 26.4799 21.1549 21.4999 21.1549Z"
              fill="#3B5C84"/>
        <path d="M26.5404 15.061C26.5404 17.8562 24.2837 20.1221 21.4998 20.1221C18.7159 20.1221 16.4592 17.8562 16.4592 15.061C16.4592 12.2659 18.7159 10 21.4998 10C24.2837 10 26.5404 12.2659 26.5404 15.061Z"
              fill="#3B5C84"/>
    </symbol>
    <symbol id="plus" viewBox="0 0 24 24" fill="none">
        <path d="M6 12.5H18M12 6.5V18.5" stroke="white" stroke-width="1.8" stroke-linecap="round"/>
    </symbol>
    <symbol id="chevron-bottom" viewBox="0 0 24 24" fill="none">
        <path d="M17 10L12 15L7 10" stroke="var(--chevron-color)" stroke-width="2" stroke-linecap="round"/>
    </symbol>
    <symbol id="menu-hamburger" viewBox="0 0 32 32" fill="none">
        <path d="M25.3334 9.33333L6.66675 9.33336M25.3334 16H6.66675M25.3334 22.6667H6.66675" stroke="#0071FE"
              stroke-width="2" stroke-linecap="round"/>
    </symbol>
    <symbol id="close" viewBox="0 0 32 32" fill="none">
        <path d="M11 21.5L16.5 16M16.5 16L22 10.5M16.5 16L22 21.5M16.5 16L11 10.5" stroke="#0071FE" stroke-width="2"
              stroke-linecap="round"/>
    </symbol>
    <symbol id="chevron-right" fill="none">
        <path d="M11 7.5L18 14.5L11 21.5" stroke="#6B737E" stroke-width="2.5" stroke-linecap="round"/>
    </symbol>

    <symbol id="inst" viewBox="0 0 50 50" fill="none">
        <path d="M20.3345 25C20.3345 22.4228 22.4232 20.333 25.0006 20.333C27.5779 20.333 29.6678 22.4228 29.6678 25C29.6678 27.5772 27.5779 29.667 25.0006 29.667C22.4232 29.667 20.3345 27.5772 20.3345 25ZM17.8114 25C17.8114 28.9704 21.03 32.1888 25.0006 32.1888C28.9711 32.1888 32.1897 28.9704 32.1897 25C32.1897 21.0296 28.9711 17.8112 25.0006 17.8112C21.03 17.8112 17.8114 21.0296 17.8114 25ZM30.7942 17.5261C30.7941 17.8584 30.8925 18.1833 31.077 18.4596C31.2615 18.7359 31.5238 18.9514 31.8307 19.0787C32.1377 19.2059 32.4755 19.2393 32.8014 19.1746C33.1273 19.11 33.4267 18.9501 33.6618 18.7152C33.8969 18.4804 34.057 18.1811 34.1219 17.8552C34.1869 17.5293 34.1538 17.1915 34.0267 16.8845C33.8997 16.5775 33.6845 16.315 33.4082 16.1303C33.132 15.9456 32.8072 15.8469 32.475 15.8468H32.4743C32.0289 15.847 31.6018 16.024 31.2868 16.3389C30.9718 16.6537 30.7946 17.0807 30.7942 17.5261ZM19.3443 36.3957C17.9793 36.3335 17.2374 36.1061 16.7444 35.9141C16.0907 35.6596 15.6243 35.3565 15.134 34.8669C14.6436 34.3772 14.3401 33.9113 14.0867 33.2576C13.8945 32.7648 13.6672 32.0227 13.6051 30.6578C13.5372 29.1821 13.5237 28.7388 13.5237 25.0001C13.5237 21.2614 13.5384 20.8194 13.6051 19.3424C13.6673 17.9775 13.8963 17.2368 14.0867 16.7426C14.3412 16.0889 14.6443 15.6226 15.134 15.1322C15.6237 14.6419 16.0896 14.3384 16.7444 14.085C17.2372 13.8928 17.9793 13.6655 19.3443 13.6034C20.8201 13.5356 21.2634 13.522 25.0006 13.522C28.7377 13.522 29.1815 13.5367 30.6585 13.6034C32.0235 13.6656 32.7642 13.8946 33.2584 14.085C33.9121 14.3384 34.3785 14.6426 34.8688 15.1322C35.3592 15.6219 35.6616 16.0889 35.9161 16.7426C36.1083 17.2354 36.3356 17.9775 36.3977 19.3424C36.4656 20.8194 36.4791 21.2614 36.4791 25.0001C36.4791 28.7388 36.4656 29.1808 36.3977 30.6578C36.3355 32.0227 36.107 32.7646 35.9161 33.2576C35.6616 33.9113 35.3585 34.3776 34.8688 34.8669C34.3791 35.3561 33.9121 35.6596 33.2584 35.9141C32.7656 36.1063 32.0235 36.3336 30.6585 36.3957C29.1827 36.4635 28.7394 36.4771 25.0006 36.4771C21.2617 36.4771 20.8197 36.4635 19.3443 36.3957ZM19.2284 11.0848C17.738 11.1527 16.7195 11.389 15.8301 11.7351C14.909 12.0924 14.1292 12.5719 13.35 13.3499C12.5708 14.1278 12.0925 14.9088 11.7351 15.8299C11.389 16.7198 11.1527 17.7377 11.0848 19.2281C11.0158 20.7208 11 21.198 11 25C11 28.802 11.0158 29.2792 11.0848 30.7719C11.1527 32.2624 11.389 33.2802 11.7351 34.1701C12.0925 35.0906 12.5709 35.8725 13.35 36.6501C14.1291 37.4277 14.909 37.9065 15.8301 38.2649C16.7212 38.611 17.738 38.8473 19.2284 38.9152C20.722 38.9831 21.1985 39 25.0006 39C28.8027 39 29.2799 38.9842 30.7727 38.9152C32.2633 38.8473 33.2811 38.611 34.171 38.2649C35.0916 37.9065 35.8719 37.4281 36.6512 36.6501C37.4304 35.8722 37.9076 35.0906 38.266 34.1701C38.6121 33.2802 38.8496 32.2623 38.9163 30.7719C38.9842 29.2781 39 28.802 39 25C39 21.198 38.9842 20.7208 38.9163 19.2281C38.8485 17.7376 38.6121 16.7193 38.266 15.8299C37.9076 14.9094 37.4291 14.1291 36.6512 13.3499C35.8732 12.5707 35.0916 12.0924 34.1722 11.7351C33.2811 11.389 32.2632 11.1515 30.7738 11.0848C29.281 11.0169 28.8038 11 25.0017 11C21.1996 11 20.722 11.0158 19.2284 11.0848Z"
              fill="#3B5C84"/>
    </symbol>

    <symbol id="tg" viewBox="0 0 50 50" fill="none">
        <path d="M11.8392 23.4521C11.8392 23.4521 25.1075 18.1836 29.7092 16.3285C31.4732 15.5865 37.4554 13.2119 37.4554 13.2119C37.4554 13.2119 40.2165 12.1731 39.9864 14.696C39.9096 15.7349 39.2961 19.3708 38.6826 23.3037C37.7622 28.869 36.7652 34.9537 36.7652 34.9537C36.7652 34.9537 36.6118 36.6605 35.308 36.9573C34.0042 37.2541 31.8566 35.9185 31.4732 35.6216C31.1664 35.399 25.7211 32.0598 23.727 30.4273C23.1901 29.9821 22.5766 29.0917 23.8036 28.0528C26.5647 25.604 29.8626 22.5617 31.8566 20.6324C32.777 19.7419 33.6973 17.6642 29.8626 20.1871C24.4173 23.8231 19.0486 27.2365 19.0486 27.2365C19.0486 27.2365 17.8214 27.9785 15.5206 27.3107C13.2197 26.6429 10.5353 25.7524 10.5353 25.7524C10.5353 25.7524 8.69477 24.6394 11.8392 23.4521Z"
              fill="#3B5C84"/>
    </symbol>

    <symbol id="vk" viewBox="0 0 50 50" fill="none">
        <path fill-rule="evenodd" clip-rule="evenodd"
              d="M42.1739 15.422C42.4242 14.6023 42.1739 14 40.9829 14H37.0445C36.0431 14 35.5814 14.5203 35.331 15.094C35.331 15.094 33.3282 19.8891 30.491 23.0038C29.573 23.9054 29.1557 24.1923 28.655 24.1923C28.4047 24.1923 28.0423 23.9054 28.0423 23.0858V15.422C28.0423 14.4384 27.7517 14 26.9171 14H20.7282C20.1024 14 19.726 14.4565 19.726 14.8892C19.726 15.8216 21.1446 16.0367 21.2908 18.6596V24.3563C21.2908 25.6053 21.0612 25.8317 20.5605 25.8317C19.2253 25.8317 15.9776 21.0152 14.0514 15.5039C13.6739 14.4327 13.2953 14 12.2887 14H8.35033C7.22506 14 7 14.5203 7 15.094C7 16.1187 8.33521 21.2006 13.217 27.9218C16.4714 32.5119 21.0568 35 25.2292 35C27.7327 35 28.0424 34.4474 28.0424 33.4955V30.0263C28.0424 28.9211 28.2796 28.7005 29.0723 28.7005C29.6564 28.7005 30.6579 28.9873 32.9945 31.2004C35.6648 33.8233 36.1051 35 37.6071 35H41.5455C42.6708 35 43.2334 34.4474 42.9089 33.3568C42.5537 32.2698 41.2787 30.6928 39.587 28.8234C38.669 27.7579 37.2921 26.6104 36.8748 26.0365C36.2907 25.2989 36.4576 24.971 36.8748 24.3153C36.8748 24.3153 41.6732 17.676 42.1739 15.422Z"
              fill="#3B5C84"/>
    </symbol>
    <symbol id="location" viewBox="0 0 28 28" fill="none">
        <path fill-rule="evenodd" clip-rule="evenodd"
              d="M13.664 24.3933L13.6616 24.3921L13.6558 24.388L13.6383 24.3746L13.5695 24.325C13.5103 24.2818 13.4267 24.2188 13.3186 24.136C13.104 23.9715 12.7995 23.7294 12.436 23.4185C11.482 22.6031 10.59 21.7179 9.76729 20.7702C7.83762 18.5383 5.83329 15.3533 5.83329 11.711C5.83329 9.53517 6.69312 7.44683 8.22379 5.90683C8.98032 5.14459 9.88014 4.53952 10.8715 4.12645C11.8628 3.71339 12.926 3.50048 14 3.5C15.0739 3.50041 16.1371 3.71322 17.1284 4.12619C18.1197 4.53915 19.0196 5.14412 19.7761 5.90625C21.3081 7.44988 22.1675 9.53677 22.1666 11.7116C22.1666 15.3533 20.1623 18.5383 18.2326 20.7702C17.4099 21.7179 16.5179 22.6031 15.5639 23.4185C15.1999 23.7294 14.896 23.9715 14.6813 24.136C14.576 24.2171 14.4696 24.2968 14.3622 24.3752L14.3435 24.388L14.3383 24.3921L14.336 24.3933C14.1347 24.535 13.8652 24.535 13.664 24.3933ZM11.0833 11.6667C11.0833 12.4402 11.3906 13.1821 11.9376 13.7291C12.4845 14.276 13.2264 14.5833 14 14.5833C14.7735 14.5833 15.5154 14.276 16.0624 13.7291C16.6093 13.1821 16.9166 12.4402 16.9166 11.6667C16.9166 10.8931 16.6093 10.1513 16.0624 9.60427C15.5154 9.05729 14.7735 8.75 14 8.75C13.2264 8.75 12.4845 9.05729 11.9376 9.60427C11.3906 10.1513 11.0833 10.8931 11.0833 11.6667Z"
              fill="#FE5823"/>
    </symbol>


    <symbol id="search" viewBox="0 0 24 24" fill="none">
        <path d="M15.4485 15.4637L19 19M17.2497 11.125C17.2497 7.74226 14.5075 5 11.1248 5C7.74219 5 5 7.74226 5 11.125C5 14.5077 7.74219 17.25 11.1248 17.25C14.5075 17.25 17.2497 14.5077 17.2497 11.125Z"
              stroke="var(--search-color)" stroke-width="1.8" stroke-linecap="round"/>
    </symbol>

    <symbol id="round-home" viewBox="0 0 42 42" fill="none">
        <path d="M17.5 33.25V24.5H24.5V33.25C24.5 34.2125 25.2875 35 26.25 35H31.5C32.4625 35 33.25 34.2125 33.25 33.25V21H36.225C37.03 21 37.4151 20.0025 36.8025 19.4775L22.1726 6.30001C21.5075 5.70501 20.4925 5.70501 19.8275 6.30001L5.19755 19.4775C4.60255 20.0025 4.97005 21 5.77505 21H8.75005V33.25C8.75005 34.2125 9.53755 35 10.5 35H15.75C16.7126 35 17.5 34.2125 17.5 33.25Z"
              fill="#0071FE"/>
    </symbol>

    <symbol id="car" viewBox="0 0 42 42" fill="none">
        <path d="M33.292 16.8883L31.374 10.9628C31.0965 10.0977 30.5612 9.34536 29.8446 8.81325C29.128 8.28113 28.2667 7.9965 27.384 8.00003H14.63C13.7478 7.9987 12.8875 8.28419 12.1714 8.81599C11.4552 9.3478 10.9194 10.0989 10.64 10.9628L8.722 16.8883C7.714 17.3219 7 18.3624 7 19.5475V26.7738C7.00295 27.2782 7.13372 27.7731 7.37933 28.2091C7.62493 28.6452 7.97681 29.0074 8.4 29.2596V32.5548C8.4 33.3496 9.03 34 9.8 34H11.2C11.97 34 12.6 33.3496 12.6 32.5548V29.6643H29.4V32.5548C29.4 33.3496 30.03 34 30.8 34H32.2C32.97 34 33.6 33.3496 33.6 32.5548V29.2596C34.0232 29.0074 34.3751 28.6452 34.6207 28.2091C34.8663 27.7731 34.997 27.2782 35 26.7738V19.5475C35 18.348 34.286 17.3219 33.278 16.8883H33.292ZM30.814 23.1607C30.814 24.3602 29.876 25.3285 28.714 25.3285C27.552 25.3285 26.614 24.3602 26.614 23.1607C26.614 21.9611 27.552 20.9928 28.714 20.9928C29.876 20.9928 30.814 21.9611 30.814 23.1607ZM15.414 23.1607C15.414 24.3602 14.476 25.3285 13.314 25.3285C12.152 25.3285 11.214 24.3602 11.214 23.1607C11.214 21.9611 12.152 20.9928 13.314 20.9928C14.476 20.9928 15.414 21.9611 15.414 23.1607ZM14.63 10.8761H27.398C27.6915 10.8753 27.9778 10.9698 28.2165 11.1461C28.4551 11.3225 28.6341 11.5718 28.728 11.8588L30.282 16.6571H11.76L13.314 11.8588C13.4079 11.5718 13.5869 11.3225 13.8255 11.1461C14.0642 10.9698 14.3505 10.8753 14.644 10.8761H14.63Z"
              fill="#FC4E1B"/>
    </symbol>

    <symbol id="slider-icon" viewBox="0 0 48 48" fill="none">
        <rect x="2.09815e-06" y="48" width="48" height="48" rx="10" transform="rotate(-90 2.09815e-06 48)"
              fill="white"/>
        <path d="M20 15L29 24L20 33" stroke="#3B5C84" stroke-width="2.5" stroke-linecap="round"/>
    </symbol>

    <symbol id="work" viewBox="0 0 42 42" fill="none">
        <path d="M9.8 34C9.03 34 8.37107 33.7219 7.8232 33.1658C7.27533 32.6097 7.00093 31.9404 7 31.1579V15.5263C7 14.7447 7.2744 14.0759 7.8232 13.5198C8.372 12.9637 9.03093 12.6852 9.8 12.6842H15.4V9.8421C15.4 9.06053 15.6744 8.39168 16.2232 7.83558C16.772 7.27947 17.4309 7.00095 18.2 7H23.8C24.57 7 25.2294 7.27853 25.7782 7.83558C26.327 8.39263 26.6009 9.06147 26.6 9.8421V12.6842H32.2C32.97 12.6842 33.6294 12.9627 34.1782 13.5198C34.727 14.0768 35.0009 14.7457 35 15.5263V31.1579C35 31.9395 34.7261 32.6088 34.1782 33.1658C33.6303 33.7229 32.9709 34.0009 32.2 34H9.8ZM18.2 12.6842H23.8V9.8421H18.2V12.6842Z"
              fill="#03B085"/>
    </symbol>

    <symbol id="hobby-sport" viewBox="0 0 42 42" fill="none">
        <path d="M10.045 29.715C9.065 28.455 8.31274 27.0844 7.7882 25.6032C7.26367 24.122 7.00094 22.5876 7 21C6.99907 19.4124 7.2618 17.8785 7.7882 16.3982C8.3146 14.9179 9.06687 13.5469 10.045 12.285C11.3983 13.335 12.46 14.6244 13.23 16.1532C14 17.682 14.385 19.2976 14.385 21C14.385 22.7024 14 24.3185 13.23 25.8482C12.46 27.3779 11.3983 28.6669 10.045 29.715ZM16.1882 34.16C14.6594 33.6 13.265 32.7833 12.005 31.71C13.615 30.38 14.875 28.7877 15.785 26.9332C16.695 25.0787 17.15 23.1009 17.15 21C17.15 18.8991 16.695 16.9218 15.785 15.0682C14.875 13.2146 13.615 11.6219 12.005 10.29C13.265 9.21667 14.6594 8.4 16.1882 7.84C17.717 7.28 19.3209 7 21 7C22.6791 7 24.2835 7.28 25.8132 7.84C27.3429 8.4 28.7369 9.21667 29.995 10.29C28.385 11.62 27.125 13.2127 26.215 15.0682C25.305 16.9237 24.85 18.9009 24.85 21C24.85 23.0991 25.305 25.0768 26.215 26.9332C27.125 28.7896 28.385 30.3819 29.995 31.71C28.735 32.7833 27.3406 33.6 25.8118 34.16C24.283 34.72 22.6791 35 21 35C19.3209 35 17.717 34.72 16.1882 34.16ZM31.955 29.715C30.6017 28.665 29.54 27.3761 28.77 25.8482C28 24.3203 27.615 22.7043 27.615 21C27.615 19.2957 28 17.6797 28.77 16.1518C29.54 14.6239 30.6017 13.335 31.955 12.285C32.935 13.545 33.6877 14.9161 34.2132 16.3982C34.7387 17.8803 35.0009 19.4143 35 21C34.9991 22.5857 34.7368 24.1201 34.2132 25.6032C33.6896 27.0863 32.9369 28.4569 31.955 29.715Z"
              fill="#FEAB00"/>
    </symbol>

    <symbol id="fashion-style" viewBox="0 0 42 42" fill="none">
        <path d="M25.0362 8.01046L25.1692 8.00035L25.326 8.00613L25.4842 8.03068L25.6424 8.07401L34.0424 10.9629C34.2949 11.0497 34.5182 11.209 34.686 11.4221C34.8539 11.6352 34.9594 11.8933 34.9902 12.1661L35 12.3336V19.5557C35 19.9095 34.8741 20.251 34.6462 20.5154C34.4183 20.7798 34.1044 20.9487 33.7638 20.9901L33.6 21.0002H30.8V31.1111C30.8002 31.84 30.5334 32.5419 30.0531 33.0764C29.5728 33.6108 28.9144 33.9381 28.21 33.9928L28 34H14C13.2936 34.0002 12.6132 33.725 12.0952 33.2294C11.5773 32.7338 11.26 32.0546 11.207 31.3278L11.2 31.1111V21.0002H8.4C8.05709 21.0001 7.72613 20.8702 7.46988 20.6351C7.21363 20.4001 7.04992 20.0761 7.0098 19.7247L7 19.5557V12.3336C6.99991 12.059 7.07572 11.79 7.21855 11.5582C7.36138 11.3264 7.5653 11.1414 7.8064 11.025L7.9576 10.9629L16.3576 8.07401C16.5681 8.00169 16.7922 7.982 17.0115 8.01657C17.2308 8.05114 17.4389 8.13898 17.6189 8.27285C17.7988 8.40672 17.9453 8.58278 18.0464 8.78654C18.1474 8.99029 18.2001 9.2159 18.2 9.44477C18.1967 10.1944 18.4761 10.916 18.9789 11.4571C19.4818 11.9982 20.1688 12.3164 20.8949 12.3445C21.621 12.3726 22.3292 12.1085 22.87 11.6078C23.4108 11.1072 23.7418 10.4092 23.793 9.66144L23.8056 9.31478L23.8294 9.15155L23.8812 8.958L23.9428 8.80923L24.0128 8.67634L24.108 8.54201L24.2046 8.42645C24.2821 8.34942 24.3637 8.28201 24.4496 8.22423L24.584 8.14768L24.7282 8.08412L24.8794 8.0379L25.0362 8.01046Z"
              fill="#8175E6"/>
    </symbol>

    <symbol id="animal" viewBox="0 0 42 42" fill="none">
        <path d="M20.1236 13.8242V13.8578C20.1234 14.5147 20.0112 15.1666 19.792 15.7853L19.8049 15.7452C19.5898 16.3472 19.2268 16.8846 18.7497 17.3075L18.7454 17.3107C18.2922 17.7214 17.6892 17.9716 17.0281 17.9716H16.9765H16.9786C16.1067 17.9651 15.272 17.6155 14.653 16.9976C13.9773 16.3741 13.4519 15.6037 13.1166 14.7452L13.1026 14.704C12.7783 13.8924 12.607 13.0272 12.5976 12.1525V12.1146C12.5976 11.4385 12.715 10.7895 12.9292 10.1871L12.9163 10.2272C13.1314 9.62523 13.4944 9.08779 13.9715 8.66492L13.9758 8.66167C14.4623 8.22115 15.098 7.98468 15.7523 8.00077H15.7491C16.6214 8.00499 17.457 8.35494 18.0747 8.97478C18.7433 9.59853 19.2642 10.3653 19.5992 11.2186L19.6132 11.2597C19.9244 12.0181 20.1085 12.899 20.1182 13.821V13.8242H20.1236ZM14.3688 22.002L14.3698 22.093C14.3711 22.9077 14.1209 23.7028 13.6538 24.3682L13.6625 24.3552C13.4495 24.664 13.1654 24.9163 12.8345 25.0906C12.5036 25.265 12.1356 25.3561 11.7621 25.3563L11.6555 25.3542H11.6609C10.7785 25.344 9.9304 25.0086 9.27717 24.4116L9.2804 24.4148C8.58554 23.8162 8.02354 23.0772 7.63087 22.2459C7.23819 21.4145 7.02362 20.5094 7.00108 19.5892V19.5805L7 19.4917C7 18.6412 7.26486 17.8524 7.71599 17.2056L7.70737 17.2186C7.92891 16.8926 8.22955 16.6289 8.58078 16.4525C8.93201 16.2762 9.32218 16.1931 9.71429 16.211H9.70891C10.5913 16.2212 11.4394 16.5566 12.0927 17.1536L12.0894 17.1504C12.7847 17.7531 13.3468 18.4957 13.7394 19.3304C14.132 20.1652 14.3464 21.0734 14.3688 21.9966V22.0042V22.002ZM21.0021 21.5448C22.5739 21.6318 24.0792 22.2118 25.3067 23.2035L25.2916 23.1916C26.7942 24.2646 28.0886 25.6056 29.1106 27.1483L29.145 27.2036C30.0665 28.4497 30.6051 29.9401 30.6944 31.4907L30.6954 31.5124L30.6976 31.6067C30.6976 32.0444 30.591 32.4582 30.4026 32.8212L30.409 32.8071C30.2284 33.14 29.946 33.4056 29.6037 33.5644L29.5929 33.5688C29.2796 33.7194 28.9146 33.8374 28.5335 33.9035L28.5076 33.9068C28.1102 33.9701 27.7084 34.0012 27.3061 34H27.2253H27.2296C26.1204 33.9254 25.0321 33.6593 24.0125 33.2134L24.075 33.2383C23.1124 32.8157 22.086 32.5589 21.0388 32.4788L21.0054 32.4767C19.8178 32.5655 18.7174 32.8342 17.6946 33.2556L17.7667 33.2296C16.7 33.66 15.571 33.9139 14.4237 33.9815L14.3935 33.9826C12.3364 33.9841 11.3078 33.161 11.3078 31.5135C11.3544 30.3591 11.6844 29.2342 12.2682 28.2393L12.2499 28.2718C12.8803 27.0801 13.6716 25.9819 14.6013 25.0085L14.597 25.0129C15.5065 24.0577 16.5462 23.2373 17.6849 22.5762L17.7517 22.5405C18.7244 21.9295 19.8391 21.5855 20.9849 21.5426H20.9978L21.0021 21.5448ZM25.0235 17.9727H24.974C24.339 17.9737 23.7263 17.7374 23.2545 17.3096L23.2567 17.3118C22.7824 16.8961 22.4209 16.366 22.2059 15.7712L22.1973 15.7452C21.9844 15.139 21.8763 14.5007 21.8775 13.8578V13.8221V13.8242C21.8872 12.8979 22.0713 12.0181 22.3997 11.2121L22.3824 11.2597C22.7169 10.3925 23.2418 9.61253 23.9178 8.97803L23.9221 8.97478C24.5397 8.3556 25.3748 8.00607 26.2466 8.00185H26.2972C26.9583 8.00185 27.5612 8.25321 28.0167 8.66492L28.0145 8.66275C28.4861 9.0777 28.85 9.60425 29.0654 10.2034L29.074 10.2294C29.2796 10.7949 29.398 11.4483 29.398 12.1287V12.1503V12.1492C29.3897 13.0425 29.2125 13.9261 28.8759 14.7527L28.8931 14.7051C28.5599 15.5778 28.0308 16.3613 27.347 16.9944L27.3427 16.9987C26.7234 17.6151 25.8892 17.9635 25.0181 17.9695H25.0171L25.0235 17.9727ZM32.2911 16.2132L32.3901 16.211C33.1772 16.211 33.8716 16.6076 34.2872 17.2132L34.2926 17.2208C34.7552 17.8876 35.0022 18.6817 35 19.4949L34.9989 19.5881V19.5838C34.9774 20.5033 34.7642 21.408 34.373 22.2393C33.9819 23.0706 33.4215 23.81 32.7282 24.4094L32.7196 24.417C32.0678 25.0125 31.2215 25.3467 30.3412 25.3563H30.3391C29.9502 25.3742 29.5632 25.2927 29.2141 25.1193C28.8651 24.946 28.5653 24.6864 28.3429 24.365L28.3375 24.3574C27.8553 23.6689 27.6075 22.8418 27.6312 21.9998V22.0042C27.6524 21.0814 27.8654 20.1734 28.2564 19.3385C28.6475 18.5037 29.2081 17.7605 29.9019 17.1569L29.9105 17.1493C30.5621 16.5564 31.4062 16.2232 32.2846 16.2121H32.2868L32.2911 16.2132Z"
              fill="#5FB0D8"/>
    </symbol>

    <symbol id="business-services" viewBox="0 0 42 42" fill="none">
        <path d="M31.0678 13.9054C31.2345 13.7387 31.4405 13.6165 31.6669 13.5502C31.8932 13.4839 32.1326 13.4756 32.363 13.526C32.5934 13.5764 32.8074 13.6839 32.9854 13.8387C33.1633 13.9935 33.2995 14.1905 33.3813 14.4117C34.0354 16.1687 34.1743 18.0758 33.7816 19.909C33.3888 21.7421 32.4809 23.4251 31.1644 24.7599C29.8479 26.0948 28.1777 27.026 26.35 27.4442C24.5224 27.8624 22.6133 27.7502 20.8473 27.1206L15.2033 32.7642C14.8115 33.156 14.3463 33.4668 13.8344 33.6788C13.3224 33.8909 12.7737 34 12.2196 34C11.6655 34 11.1168 33.8909 10.6048 33.6788C10.0929 33.4668 9.62773 33.156 9.2359 32.7642C8.84407 32.3724 8.53325 31.9073 8.3212 31.3953C8.10914 30.8834 8 30.3348 8 29.7807C8 29.2266 8.10914 28.6779 8.3212 28.166C8.53326 27.6541 8.84407 27.189 9.2359 26.7972L14.8799 21.1536C14.25 19.3891 14.1367 17.4814 14.5535 15.6548C14.9702 13.8282 15.8996 12.1584 17.2324 10.8415C18.5653 9.52473 20.2463 8.61558 22.0779 8.2209C23.9096 7.82623 25.8159 7.9624 27.5728 8.61344C27.794 8.69529 27.9911 8.83144 28.1458 9.00938C28.3006 9.18732 28.4082 9.40132 28.4586 9.6317C28.509 9.86208 28.5007 10.1014 28.4344 10.3278C28.3681 10.5541 28.2459 10.7601 28.0791 10.9268L24.7656 14.2401C24.3698 14.6357 24.1474 15.1722 24.1473 15.7317C24.1472 16.2913 24.3693 16.8279 24.7649 17.2236C25.1605 17.6194 25.697 17.8418 26.2566 17.8419C26.8162 17.842 27.3529 17.6199 27.7486 17.2243L31.0678 13.9054Z"
              fill="#C26EB6"/>
    </symbol>

    <symbol id="toy" viewBox="0 0 42 42" fill="none">
        <path d="M26.4167 31.299C25.2178 31.299 24.25 30.0857 24.25 28.5835C24.25 27.0957 25.2178 25.8824 26.4167 25.8824C27.6156 25.8824 28.5833 27.0957 28.5833 28.5835C28.5833 30.0857 27.6156 31.299 26.4167 31.299ZM21 19.917C19.2089 19.917 17.75 18.7037 17.75 17.216C17.75 15.7138 19.2089 14.5005 21 14.5005C22.7911 14.5005 24.25 15.7138 24.25 17.216C24.25 18.7037 22.7911 19.917 21 19.917ZM15.5833 31.299C14.3845 31.299 13.4167 30.0857 13.4167 28.5835C13.4167 27.0957 14.3845 25.8824 15.5833 25.8824C16.7822 25.8824 17.75 27.0957 17.75 28.5835C17.75 30.0857 16.7822 31.299 15.5833 31.299ZM21 15.5838C21.5922 15.5838 22.0833 16.0749 22.0833 16.6671C22.0833 17.2593 21.5922 17.7504 21 17.7504C20.4078 17.7504 19.9167 17.2593 19.9167 16.6671C19.9167 16.0749 20.4078 15.5838 21 15.5838ZM30.75 21.0003C30.2878 21.0003 29.84 21.1015 29.4356 21.2892C28.7422 20.4081 27.8033 19.6571 26.6767 19.0793C27.5 17.9238 27.9911 16.5227 27.9911 15.0061V14.9194C29.5656 14.5872 30.75 13.1861 30.75 11.4962C30.75 9.5751 29.1756 8.00069 27.2544 8.00069C26.2578 8.00069 25.3333 8.41957 24.7267 9.084C23.6126 8.37601 22.32 8 21 8C19.68 8 18.3874 8.37601 17.2733 9.084C16.6667 8.41957 15.7422 8.00069 14.7456 8.00069C12.8245 8.00069 11.25 9.5751 11.25 11.4962C11.25 13.1717 12.4345 14.5727 13.9945 14.9194V15.0061C13.9945 16.5227 14.5 17.9382 15.3089 19.0793C14.1967 19.6571 13.2578 20.4081 12.5645 21.2892C12.0708 21.0669 11.5293 20.9719 10.9895 21.0131C10.4497 21.0543 9.92882 21.2302 9.47463 21.5249C9.02044 21.8195 8.64745 22.2234 8.38982 22.6996C8.1322 23.1757 7.99817 23.7089 8.00002 24.2503C8.00002 26.0558 9.44446 27.5002 11.25 27.5002H11.3367C11.2789 27.8468 11.25 28.2224 11.25 28.5835C11.25 31.5734 13.1856 34 15.5833 34C17.0422 34 18.3278 33.09 19.1222 31.7034C19.7289 31.7901 20.35 31.8334 21 31.8334C21.65 31.8334 22.2711 31.7901 22.8778 31.7034C23.6722 33.09 24.9578 34 26.4167 34C28.8144 34 30.75 31.5734 30.75 28.5835C30.75 28.2224 30.7211 27.8468 30.6633 27.5002H30.75C32.5556 27.5002 34 26.0558 34 24.2503C34 22.4448 32.5556 21.0003 30.75 21.0003Z"
              fill="#FC4E1B"/>
    </symbol>

    <symbol id="electronics" viewBox="0 0 42 42" fill="none">
        <path d="M7 8.75C7 8.28587 7.18437 7.84075 7.51256 7.51256C7.84075 7.18437 8.28587 7 8.75 7H29.75C30.2141 7 30.6592 7.18437 30.9874 7.51256C31.3156 7.84075 31.5 8.28587 31.5 8.75V17.5H24.5C23.5717 17.5 22.6815 17.8687 22.0251 18.5251C21.3687 19.1815 21 20.0717 21 21V31.5H10.5V28H17.5V26.25H8.75C8.28587 26.25 7.84075 26.0656 7.51256 25.7374C7.18437 25.4092 7 24.9641 7 24.5V8.75Z"
              fill="#03B085"/>
        <path d="M22.75 21C22.75 20.5359 22.9344 20.0908 23.2626 19.7626C23.5908 19.4344 24.0359 19.25 24.5 19.25H33.25C33.7141 19.25 34.1592 19.4344 34.4874 19.7626C34.8156 20.0908 35 20.5359 35 21V33.25C35 33.7141 34.8156 34.1592 34.4874 34.4874C34.1592 34.8156 33.7141 35 33.25 35H24.5C24.0359 35 23.5908 34.8156 23.2626 34.4874C22.9344 34.1592 22.75 33.7141 22.75 33.25V21Z"
              fill="#03B085"/>
    </symbol>

    <symbol id="spares" viewBox="0 0 42 42" fill="none">
        <path d="M20.5028 25.55C19.31 25.55 18.1659 25.0706 17.3225 24.2173C16.479 23.364 16.0051 22.2067 16.0051 21C16.0051 19.7933 16.479 18.636 17.3225 17.7827C18.1659 16.9294 19.31 16.45 20.5028 16.45C21.6957 16.45 22.8397 16.9294 23.6832 17.7827C24.5267 18.636 25.0006 19.7933 25.0006 21C25.0006 22.2067 24.5267 23.364 23.6832 24.2173C22.8397 25.0706 21.6957 25.55 20.5028 25.55ZM30.0509 22.261C30.1023 21.845 30.1408 21.429 30.1408 21C30.1408 20.571 30.1023 20.142 30.0509 19.7L32.7624 17.581C33.0065 17.386 33.0708 17.035 32.9166 16.749L30.3464 12.251C30.1922 11.965 29.8453 11.848 29.5626 11.965L26.3627 13.265C25.6945 12.758 25.0006 12.316 24.191 11.991L23.7155 8.546C23.6894 8.39288 23.6106 8.25406 23.493 8.15412C23.3753 8.05418 23.2266 7.99958 23.073 8H17.9327C17.6114 8 17.3416 8.234 17.2902 8.546L16.8147 11.991C16.0051 12.316 15.3112 12.758 14.6429 13.265L11.4431 11.965C11.1604 11.848 10.8134 11.965 10.6592 12.251L8.0891 16.749C7.92204 17.035 7.99914 17.386 8.2433 17.581L10.9548 19.7C10.9034 20.142 10.8648 20.571 10.8648 21C10.8648 21.429 10.9034 21.845 10.9548 22.261L8.2433 24.419C7.99914 24.614 7.92204 24.965 8.0891 25.251L10.6592 29.749C10.8134 30.035 11.1604 30.139 11.4431 30.035L14.6429 28.722C15.3112 29.242 16.0051 29.684 16.8147 30.009L17.2902 33.454C17.3416 33.766 17.6114 34 17.9327 34H23.073C23.3942 34 23.6641 33.766 23.7155 33.454L24.191 30.009C25.0006 29.671 25.6945 29.242 26.3627 28.722L29.5626 30.035C29.8453 30.139 30.1922 30.035 30.3464 29.749L32.9166 25.251C33.0708 24.965 33.0065 24.614 32.7624 24.419L30.0509 22.261Z"
              fill="#FEAB00"/>
    </symbol>

    <symbol id="cart" viewBox="0 0 42 42" fill="none">
        <path d="M14.7 33C13.8254 33 13.0774 32.6947 12.456 32.084C11.8345 31.4733 11.5238 30.7453 11.5238 29.9V17.5333L9.00357 11.6667H6V9H10.8679L13.1464 14.3333H33.55C34.0794 14.3333 34.4821 14.5444 34.7583 14.9667C35.0345 15.3889 35.046 15.8222 34.7929 16.2667L30.8571 23.7C32.031 23.8778 33.0151 24.4 33.8096 25.2667C34.6041 26.1333 35.0009 27.1556 35 28.3333C35 29.6222 34.5342 30.7222 33.6025 31.6333C32.6708 32.5444 31.537 33 30.2012 33C28.8433 33 27.6984 32.5444 26.7668 31.6333C25.8351 30.7222 25.3688 29.6222 25.3679 28.3333C25.3679 27.8889 25.4254 27.4778 25.5405 27.1C25.6556 26.7222 25.8167 26.3556 26.0238 26L21.5012 25.6L17.3583 31.6C17.0591 32.0444 16.6738 32.3889 16.2025 32.6333C15.7311 32.8778 15.2303 33 14.7 33ZM14.7345 30.3C14.7806 30.3 14.8841 30.2444 15.0452 30.1333L18.394 25.3333C17.2663 25.2222 16.3802 24.9613 15.7357 24.5507C15.0913 24.14 14.6079 23.712 14.2857 23.2667V29.9333C14.2857 30.0444 14.3317 30.1333 14.4238 30.2C14.5159 30.2667 14.6194 30.3 14.7345 30.3ZM30.1667 30.3333C30.7651 30.3333 31.2599 30.1391 31.6512 29.7507C32.0425 29.3622 32.2381 28.8898 32.2381 28.3333C32.2381 27.7556 32.0425 27.2778 31.6512 26.9C31.2599 26.5222 30.7651 26.3333 30.1667 26.3333C29.5913 26.3333 29.1024 26.5222 28.7001 26.9C28.2978 27.2778 28.0962 27.7556 28.0952 28.3333C28.0952 28.8889 28.2969 29.3613 28.7001 29.7507C29.1033 30.14 29.5922 30.3342 30.1667 30.3333Z"
              fill="#8175E6"/>
    </symbol>

    <symbol id="heart" viewBox="0 0 18 18" fill="none">
        <path d="M12.1233 3C10.8289 3 10.0155 3.64427 9.55065 4.2104C9.33172 4.47705 8.74073 4.47701 8.5218 4.21034C8.05702 3.64423 7.24372 3 5.94901 3C3.64062 3 2.25 5.20075 2.25 7.01443C2.25 9.38977 6.39449 12.7384 8.20575 14.0883C8.70082 14.4574 9.37155 14.4574 9.8667 14.0884C11.6779 12.7387 15.8224 9.39105 15.8224 7.01497C15.8224 5.20075 14.4328 3 12.1233 3Z"
              fill="white" fill-opacity="0.25" stroke="white" stroke-linecap="round"/>
    </symbol>

    <symbol id="orange-heart" viewBox="0 0 18 18" fill="none">
        <path d="M12.1233 3C10.8289 3 10.0155 3.64427 9.55065 4.2104C9.33172 4.47705 8.74073 4.47701 8.5218 4.21034C8.05702 3.64423 7.24372 3 5.94901 3C3.64062 3 2.25 5.20075 2.25 7.01443C2.25 9.38977 6.39449 12.7384 8.20575 14.0883C8.70082 14.4574 9.37155 14.4574 9.8667 14.0884C11.6779 12.7387 15.8224 9.39105 15.8224 7.01497C15.8224 5.20075 14.4328 3 12.1233 3Z"
              fill="#FE5823"/>
    </symbol>

    <symbol id="blue-check" width="20" height="20" viewBox="0 0 20 20" fill="none" xmlns="http://www.w3.org/2000/svg">
        <rect width="20" height="20" rx="8" fill="#F3F5F8"/>
        <path d="M14.5713 7.88312L8.33756 14.1169L5.42847 11.2078" stroke="#0071FE" stroke-width="2" stroke-linecap="round"/>
    </symbol>

</svg>
